<svg width="19.000000" height="19.000000" viewBox="0 0 19 19" fill="none" xmlns="http://www.w3.org/2000/svg" xmlns:xlink="http://www.w3.org/1999/xlink">
	<desc>
			Created with Pixso.
	</desc>
	<defs/>
	<path id="Union" d="M16 9C16 12.866 12.866 16 9 16C5.13403 16 2 12.866 2 9C2 5.13403 5.13403 2 9 2C12.866 2 16 5.13403 16 9ZM16.032 14.6177C17.2634 13.078 18 11.125 18 9C18 4.02942 13.9705 0 9 0C4.02954 0 0 4.02942 0 9C0 13.9706 4.02954 18 9 18C11.125 18 13.0781 17.2635 14.6177 16.0319L17.293 18.7072C17.6833 19.0977 18.3167 19.0977 18.707 18.7072C19.0977 18.3165 19.0977 17.6835 18.707 17.2928L16.032 14.6177Z" fill="#6F767E" fill-opacity="1.000000" fill-rule="evenodd"/>
</svg>
